<svg width="16" height="16" viewBox="0 0 16 16" fill="none" xmlns="http://www.w3.org/2000/svg">
<circle cx="8" cy="8" r="7" fill="white" stroke="#5C40C9" stroke-width="2"/>
<path d="M8 10C8.27984 10 8.5144 10.0983 8.7037 10.295C8.90123 10.4917 9 10.7294 9 11.008C9 11.2785 8.90123 11.5121 8.7037 11.7087C8.5144 11.9054 8.27984 12.0038 8 12.0038C7.7284 12.0038 7.49383 11.9054 7.2963 11.7087C7.09877 11.5121 7 11.2785 7 11.008C7 10.7294 7.09877 10.4917 7.2963 10.295C7.49383 10.0983 7.7284 10 8 10Z" fill="#5C40C9"/>
<rect x="7" y="4" width="2" height="5" rx="1" fill="#5C40C9"/>
</svg>
