<svg width="549" height="468" viewBox="0 0 549 468" fill="none" xmlns="http://www.w3.org/2000/svg">
<rect width="549" height="468" rx="10" fill="#EBE6FB"/>
<g opacity="0.2">
<path d="M274.53 116.866C296.989 116.866 318.943 123.526 337.617 136.003C356.291 148.481 370.845 166.215 379.44 186.965C388.034 207.714 390.283 230.546 385.901 252.573C381.52 274.6 370.705 294.833 354.824 310.714C338.944 326.595 318.71 337.41 296.683 341.791C274.656 346.173 251.824 343.924 231.075 335.329C210.326 326.735 192.591 312.18 180.114 293.506C167.636 274.833 160.977 252.878 160.977 230.42H214.914C214.914 242.21 218.411 253.736 224.961 263.54C231.512 273.344 240.823 280.985 251.716 285.497C262.609 290.009 274.596 291.19 286.16 288.89C297.725 286.589 308.347 280.912 316.684 272.574C325.022 264.237 330.7 253.614 333 242.05C335.3 230.486 334.12 218.499 329.608 207.606C325.095 196.712 317.454 187.402 307.651 180.851C297.847 174.3 286.321 170.804 274.53 170.804V116.866Z" fill="#F34C3A"/>
<path d="M467 231.5C467 269.573 455.71 306.791 434.558 338.447C413.406 370.104 383.341 394.777 348.167 409.347C312.992 423.917 274.286 427.729 236.945 420.301C199.604 412.873 165.304 394.54 138.382 367.618C111.46 340.696 93.1265 306.396 85.6988 269.055C78.2712 231.714 82.0833 193.008 96.6532 157.833C111.223 122.659 135.896 92.5942 167.553 71.4421C199.209 50.2899 236.427 39 274.5 39L274.5 92.9811C247.104 92.981 220.322 101.105 197.543 116.326C174.764 131.546 157.009 153.18 146.525 178.491C136.041 203.802 133.298 231.654 138.643 258.524C143.987 285.394 157.18 310.075 176.552 329.448C195.925 348.82 220.606 362.013 247.476 367.357C274.346 372.702 302.198 369.959 327.509 359.475C352.82 348.991 374.454 331.236 389.674 308.457C404.895 285.678 413.019 258.896 413.019 231.5H467Z" fill="#784FEB"/>
<circle cx="273.997" cy="229.878" r="35.1475" fill="#EBB430"/>
</g>
</svg>
