<svg width="39" height="33" viewBox="0 0 39 33" fill="none" xmlns="http://www.w3.org/2000/svg">
<path d="M39 3.90669C37.5497 4.56923 36.0043 5.00838 34.3931 5.22162C36.0506 4.191 37.3157 2.57146 37.9104 0.619385C36.3651 1.57892 34.6588 2.25669 32.8404 2.63492C31.3731 1.00777 29.2817 0 27.0002 0C22.5737 0 19.0101 3.74169 19.0101 8.32869C19.0101 8.98869 19.0637 9.62331 19.1953 10.2275C12.5483 9.88985 6.66656 6.57208 2.71538 1.518C2.02556 2.76438 1.62094 4.191 1.62094 5.72677C1.62094 8.61046 3.04687 11.1667 5.17237 12.6466C3.88781 12.6212 2.62762 12.2328 1.56 11.6211C1.56 11.6465 1.56 11.6795 1.56 11.7125C1.56 15.7588 4.33144 19.1197 7.96575 19.8939C7.31494 20.0792 6.60563 20.1681 5.8695 20.1681C5.35763 20.1681 4.84088 20.1376 4.35581 20.0259C5.39175 23.3234 8.33138 25.7476 11.8268 25.8263C9.1065 28.0424 5.65256 29.3776 1.91344 29.3776C1.25775 29.3776 0.628875 29.3472 0 29.2634C3.54169 31.6419 7.73906 33 12.2655 33C26.9783 33 35.022 20.3077 35.022 9.306C35.022 8.93792 35.0098 8.58254 34.9928 8.22969C36.5796 7.05692 37.9129 5.59223 39 3.90669Z" fill="#03A9F4"/>
</svg>
