<svg width="38" height="36" viewBox="0 0 38 36" fill="none" xmlns="http://www.w3.org/2000/svg">
<path d="M37.2551 26.8824C32.1747 26.0376 29.8851 20.7792 29.7925 20.556C29.7854 20.5416 29.7806 20.5272 29.7711 20.5128C29.5122 19.98 29.4505 19.5408 29.593 19.2072C29.8709 18.5496 30.9349 18.2088 31.638 17.9832C31.8422 17.9184 32.0346 17.856 32.1937 17.7936C32.8873 17.5176 33.3813 17.2176 33.7091 16.8792C34.0986 16.4736 34.1746 16.0848 34.1698 15.8328C34.158 15.2184 33.6924 14.6712 32.949 14.4048C32.6996 14.3016 32.4123 14.2464 32.1225 14.2464C31.9254 14.2464 31.6308 14.2728 31.353 14.4048C30.7592 14.6856 30.2271 14.8392 29.7688 14.8608C29.5265 14.8488 29.3555 14.796 29.2439 14.7456C29.2581 14.5056 29.2724 14.2584 29.289 14.004L29.2961 13.8936C29.46 11.2944 29.6619 8.0616 28.8116 6.1416C28.2297 4.8264 27.4483 3.696 26.4863 2.7792C25.6812 2.0112 24.7454 1.3872 23.7051 0.9264C21.8976 0.12 20.2113 0 19.3658 0H19.3634C19.3301 0 19.2993 0 19.2708 0C19.0356 0.0024 18.6532 0.00719998 18.6176 0.00719998C17.7744 0.00719998 16.0857 0.1272 14.2735 0.9336C13.2356 1.3944 12.3046 2.016 11.5018 2.784C10.5446 3.7008 9.76557 4.8288 9.18604 6.1392C8.33575 8.0568 8.53764 11.2896 8.69914 13.8864V13.8912C8.71577 14.1696 8.73477 14.46 8.7514 14.7432C8.62789 14.7984 8.42601 14.8608 8.12912 14.8608C7.64935 14.8608 7.07932 14.7072 6.43566 14.4024C6.24566 14.3136 6.02952 14.268 5.79201 14.268C5.40962 14.268 5.00347 14.3808 4.65433 14.5896C4.21256 14.8512 3.92755 15.2184 3.84917 15.6288C3.79929 15.8976 3.80167 16.4328 4.39069 16.9752C4.71608 17.2728 5.19111 17.5488 5.80626 17.7936C5.96777 17.8584 6.16015 17.9184 6.36204 17.9832C7.06507 18.2088 8.13149 18.5496 8.40938 19.2072C8.54951 19.5408 8.48776 19.98 8.22887 20.5128C8.22175 20.5272 8.21462 20.5416 8.20987 20.556C8.14337 20.7096 7.53771 22.0896 6.29553 23.5464C5.59012 24.3744 4.81346 25.068 3.98692 25.6056C2.9775 26.2632 1.88733 26.6904 0.744898 26.88C0.296002 26.9544 -0.024638 27.3576 0.0014882 27.816C0.00861354 27.948 0.03949 28.08 0.0941175 28.2072V28.2096C0.277001 28.6392 0.697396 29.0016 1.38143 29.3208C2.21747 29.712 3.46678 30.0408 5.09848 30.2976C5.18161 30.456 5.26711 30.852 5.32649 31.1232C5.38824 31.4112 5.45237 31.7088 5.545 32.0232C5.64475 32.364 5.90126 32.772 6.56392 32.772C6.81568 32.772 7.10307 32.7144 7.43796 32.6496C7.92723 32.5536 8.59701 32.4216 9.43068 32.4216C9.89382 32.4216 10.3736 32.4624 10.8557 32.544C11.7868 32.7 12.5896 33.2712 13.5182 33.9336C14.8768 34.9032 16.4159 36 18.7672 36C18.8314 36 18.8955 35.9976 18.9596 35.9928C19.0356 35.9976 19.133 36 19.2328 36C21.5841 36 23.1232 34.9032 24.4818 33.936L24.4841 33.9336C25.4128 33.2736 26.2156 32.7024 27.1466 32.5464C27.6288 32.4648 28.1086 32.424 28.5717 32.424C29.3697 32.424 30.0015 32.5272 30.5644 32.6376C30.9326 32.7096 31.2176 32.7456 31.4385 32.7456H31.4812C31.9657 32.7456 32.322 32.4768 32.4574 32.0088C32.5476 31.6992 32.6118 31.4112 32.6759 31.116C32.7305 30.8616 32.8208 30.4536 32.9015 30.2952C34.5332 30.036 35.7825 29.7096 36.6186 29.3184C37.3002 28.9992 37.7206 28.6368 37.9035 28.2096C37.9581 28.0824 37.9914 27.9504 37.9985 27.8136C38.0246 27.36 37.704 26.9544 37.2551 26.8824Z" fill="#FFEB3B"/>
</svg>
