<svg width="33" height="30" viewBox="0 0 33 30" fill="none" xmlns="http://www.w3.org/2000/svg">
<path d="M32.9917 29.0837V29.0825H33V18.4161C33 13.198 31.7253 9.17837 24.8034 9.17837C21.4759 9.17837 19.2428 10.7877 18.3312 12.3133H18.2349V9.66552H11.6719V29.0825H18.5058V19.4679C18.5058 16.9364 19.0503 14.4886 22.6075 14.4886C26.1125 14.4886 26.1647 17.3775 26.1647 19.6303V29.0837H32.9917Z" fill="#0077B5"/>
<path d="M0.545096 9.66668H7.38726V29.0837H0.545096V9.66668Z" fill="#0077B5"/>
<path d="M3.96284 0C1.77517 0 0 1.56446 0 3.49247C0 5.42048 1.77517 7.01766 3.96284 7.01766C6.15052 7.01766 7.92568 5.42048 7.92568 3.49247C7.92431 1.56446 6.14914 0 3.96284 0Z" fill="#0077B5"/>
</svg>
