<svg width="35" height="35" viewBox="0 0 35 35" fill="none" xmlns="http://www.w3.org/2000/svg">
<path d="M1.93035 6.18242e-08H33.068C34.1346 -0.000266905 34.9995 0.864105 35 1.93035V33.0688C34.9997 34.1356 34.1348 35.0003 33.068 35H24.165V21.4648H28.728L29.4116 16.167H24.165V12.7928C24.165 11.2625 24.5899 10.2197 26.7843 10.2197H29.5654V5.49412C29.0816 5.42976 27.4215 5.28584 25.4898 5.28584C21.4566 5.28584 18.6963 7.74677 18.6963 12.2681V16.167H14.1504V21.4648H18.6963V35H1.93195C0.86544 35.0003 0.000534181 34.1359 6.18242e-08 33.0696V1.93195C-0.000266905 0.86544 0.864105 0.000534181 1.93035 6.18242e-08Z" fill="#4564A4"/>
</svg>
