<?xml version="1.0" encoding="UTF-8"?>
<svg xmlns="http://www.w3.org/2000/svg" xmlns:xlink="http://www.w3.org/1999/xlink" width="33pt" height="37pt" viewBox="0 0 33 37" version="1.1">
<g id="surface1">
<path style=" stroke:none;fill-rule:nonzero;fill:rgb(14.509804%,95.686275%,93.333333%);fill-opacity:1;" d="M 10.847656 16.03125 L 10.847656 14.898438 C 10.453125 14.835938 10.050781 14.800781 9.652344 14.796875 C 5.769531 14.789062 2.332031 17.28125 1.164062 20.953125 C 0 24.625 1.375 28.625 4.5625 30.820312 C 2.175781 28.289062 1.511719 24.601562 2.871094 21.40625 C 4.226562 18.210938 7.351562 16.105469 10.847656 16.03125 Z M 10.847656 16.03125 "/>
<path style=" stroke:none;fill-rule:nonzero;fill:rgb(14.509804%,95.686275%,93.333333%);fill-opacity:1;" d="M 11.0625 28.847656 C 13.234375 28.84375 15.019531 27.148438 15.113281 24.996094 L 15.113281 5.808594 L 18.648438 5.808594 C 18.578125 5.410156 18.542969 5.003906 18.546875 4.59375 L 13.710938 4.59375 L 13.710938 23.765625 C 13.628906 25.925781 11.839844 27.636719 9.660156 27.640625 C 9.007812 27.636719 8.367188 27.476562 7.789062 27.175781 C 8.550781 28.21875 9.765625 28.839844 11.0625 28.847656 Z M 25.253906 12.320312 L 25.253906 11.253906 C 23.953125 11.253906 22.679688 10.875 21.59375 10.160156 C 22.546875 11.253906 23.828125 12.011719 25.253906 12.320312 Z M 25.253906 12.320312 "/>
<path style=" stroke:none;fill-rule:nonzero;fill:rgb(99.607843%,17.254902%,33.333333%);fill-opacity:1;" d="M 21.59375 10.160156 C 20.527344 8.953125 19.9375 7.40625 19.941406 5.800781 L 18.648438 5.800781 C 18.984375 7.59375 20.050781 9.167969 21.59375 10.160156 Z M 9.652344 19.589844 C 7.789062 19.601562 6.171875 20.867188 5.730469 22.660156 C 5.285156 24.453125 6.132812 26.316406 7.78125 27.175781 C 6.886719 25.953125 6.761719 24.339844 7.453125 22.996094 C 8.148438 21.648438 9.542969 20.804688 11.0625 20.804688 C 11.46875 20.8125 11.871094 20.875 12.261719 20.992188 L 12.261719 16.113281 C 11.863281 16.054688 11.464844 16.023438 11.0625 16.019531 L 10.847656 16.019531 L 10.847656 19.730469 C 10.457031 19.625 10.054688 19.578125 9.652344 19.589844 Z M 9.652344 19.589844 "/>
<path style=" stroke:none;fill-rule:nonzero;fill:rgb(99.607843%,17.254902%,33.333333%);fill-opacity:1;" d="M 25.253906 12.320312 L 25.253906 16.03125 C 22.84375 16.023438 20.496094 15.269531 18.546875 13.867188 L 18.546875 23.617188 C 18.535156 28.480469 14.554688 32.417969 9.652344 32.417969 C 7.828125 32.421875 6.050781 31.863281 4.5625 30.820312 C 7.046875 33.472656 10.914062 34.34375 14.308594 33.019531 C 17.707031 31.699219 19.9375 28.449219 19.941406 24.832031 L 19.941406 15.113281 C 21.898438 16.503906 24.246094 17.25 26.65625 17.246094 L 26.65625 12.46875 C 26.183594 12.46875 25.714844 12.417969 25.253906 12.320312 Z M 25.253906 12.320312 "/>
<path style=" stroke:none;fill-rule:nonzero;fill:rgb(0%,0%,0%);fill-opacity:1;" d="M 18.546875 23.617188 L 18.546875 13.867188 C 20.503906 15.261719 22.851562 16.007812 25.261719 16.003906 L 25.261719 12.292969 C 23.839844 11.996094 22.550781 11.246094 21.59375 10.160156 C 20.050781 9.167969 18.984375 7.59375 18.648438 5.800781 L 15.113281 5.800781 L 15.113281 25 C 15.042969 26.710938 13.886719 28.191406 12.230469 28.6875 C 10.574219 29.183594 8.785156 28.582031 7.769531 27.195312 C 6.121094 26.335938 5.277344 24.472656 5.71875 22.679688 C 6.160156 20.882812 7.777344 19.617188 9.640625 19.609375 C 10.046875 19.613281 10.453125 19.675781 10.839844 19.796875 L 10.839844 16.085938 C 7.324219 16.144531 4.175781 18.257812 2.8125 21.472656 C 1.453125 24.6875 2.136719 28.394531 4.554688 30.925781 C 6.058594 31.929688 7.835938 32.453125 9.652344 32.417969 C 14.554688 32.417969 18.535156 28.480469 18.546875 23.617188 Z M 18.546875 23.617188 "/>
</g>
</svg>
